M48
INCH,TZ
T1C0.0157
T2C0.0236
T3C0.0315
T4C0.0335
T5C0.0394
%
G90
G05
T1
X52653Y-38971
X53150Y-38976
X53150Y-39370
X54670Y-34646
X57087Y-37795
X57087Y-38189
X57087Y-38583
X57088Y-39926
T3
X53543Y-41732
X54331Y-41732
X55118Y-41732
X55906Y-41732
X56693Y-41732
X59843Y-34843
X59843Y-35630
X59843Y-36417
X59843Y-37205
X59843Y-37992
X59843Y-38780
T4
X50773Y-35827
X50773Y-37795
T5
X54665Y-32116
X55665Y-32116
T2
G00X49572Y-35433
M15
G01X49847Y-35433
M16
G05
G00X49847Y-38189
M15
G01X49572Y-38189
M16
G05
T0
M30
