G04 #@! TF.GenerationSoftware,KiCad,Pcbnew,(6.0.5)*
G04 #@! TF.CreationDate,2022-09-30T16:47:31-04:00*
G04 #@! TF.ProjectId,Pokeball_xs,506f6b65-6261-46c6-9c5f-78732e6b6963,rev?*
G04 #@! TF.SameCoordinates,Original*
G04 #@! TF.FileFunction,Soldermask,Top*
G04 #@! TF.FilePolarity,Negative*
%FSLAX46Y46*%
G04 Gerber Fmt 4.6, Leading zero omitted, Abs format (unit mm)*
G04 Created by KiCad (PCBNEW (6.0.5)) date 2022-09-30 16:47:31*
%MOMM*%
%LPD*%
G01*
G04 APERTURE LIST*
G04 Aperture macros list*
%AMRoundRect*
0 Rectangle with rounded corners*
0 $1 Rounding radius*
0 $2 $3 $4 $5 $6 $7 $8 $9 X,Y pos of 4 corners*
0 Add a 4 corners polygon primitive as box body*
4,1,4,$2,$3,$4,$5,$6,$7,$8,$9,$2,$3,0*
0 Add four circle primitives for the rounded corners*
1,1,$1+$1,$2,$3*
1,1,$1+$1,$4,$5*
1,1,$1+$1,$6,$7*
1,1,$1+$1,$8,$9*
0 Add four rect primitives between the rounded corners*
20,1,$1+$1,$2,$3,$4,$5,0*
20,1,$1+$1,$4,$5,$6,$7,0*
20,1,$1+$1,$6,$7,$8,$9,0*
20,1,$1+$1,$8,$9,$2,$3,0*%
G04 Aperture macros list end*
%ADD10C,0.100000*%
%ADD11R,1.981200X0.558800*%
%ADD12R,1.473200X0.889000*%
%ADD13RoundRect,0.225000X-0.225000X-0.250000X0.225000X-0.250000X0.225000X0.250000X-0.225000X0.250000X0*%
%ADD14C,4.300000*%
%ADD15RoundRect,0.200000X-0.275000X0.200000X-0.275000X-0.200000X0.275000X-0.200000X0.275000X0.200000X0*%
%ADD16RoundRect,0.200000X-0.200000X-0.275000X0.200000X-0.275000X0.200000X0.275000X-0.200000X0.275000X0*%
%ADD17R,1.350000X1.350000*%
%ADD18O,1.350000X1.350000*%
%ADD19RoundRect,0.225000X-0.250000X0.225000X-0.250000X-0.225000X0.250000X-0.225000X0.250000X0.225000X0*%
%ADD20RoundRect,0.200000X0.200000X0.275000X-0.200000X0.275000X-0.200000X-0.275000X0.200000X-0.275000X0*%
%ADD21R,1.350000X0.400000*%
%ADD22O,1.900000X1.200000*%
%ADD23R,1.900000X1.500000*%
%ADD24C,1.450000*%
%ADD25R,1.900000X1.200000*%
%ADD26R,1.200000X0.900000*%
%ADD27R,0.650000X1.220000*%
%ADD28R,1.700000X1.700000*%
%ADD29O,1.700000X1.700000*%
%ADD30RoundRect,0.150000X0.512500X0.150000X-0.512500X0.150000X-0.512500X-0.150000X0.512500X-0.150000X0*%
G04 APERTURE END LIST*
G04 #@! TO.C,U2*
G36*
X149361200Y-89100200D02*
G01*
X147176800Y-89100200D01*
X147176800Y-85899800D01*
X149361200Y-85899800D01*
X149361200Y-89100200D01*
G37*
D10*
X149361200Y-89100200D02*
X147176800Y-89100200D01*
X147176800Y-85899800D01*
X149361200Y-85899800D01*
X149361200Y-89100200D01*
G04 #@! TD*
D11*
G04 #@! TO.C,U1*
X137590200Y-97595000D03*
X137590200Y-98865000D03*
X137590200Y-100135000D03*
X137590200Y-101405000D03*
X142517800Y-101405000D03*
X142517800Y-100135000D03*
X142517800Y-98865000D03*
X142517800Y-97595000D03*
G04 #@! TD*
D12*
G04 #@! TO.C,U2*
X141731000Y-85200000D03*
X141731000Y-87500000D03*
X141731000Y-89800000D03*
G04 #@! TD*
D13*
G04 #@! TO.C,C1*
X133725000Y-103500000D03*
X135275000Y-103500000D03*
G04 #@! TD*
D14*
G04 #@! TO.C,H1*
X128500000Y-105000000D03*
G04 #@! TD*
G04 #@! TO.C,H2*
X128500000Y-82000000D03*
G04 #@! TD*
G04 #@! TO.C,H3*
X151500000Y-105000000D03*
G04 #@! TD*
G04 #@! TO.C,H4*
X151500000Y-82000000D03*
G04 #@! TD*
D15*
G04 #@! TO.C,R1*
X132028287Y-98998377D03*
X132028287Y-100648377D03*
G04 #@! TD*
D16*
G04 #@! TO.C,R2*
X133675000Y-102000000D03*
X135325000Y-102000000D03*
G04 #@! TD*
D17*
G04 #@! TO.C,J1*
X136000000Y-106000000D03*
D18*
X138000000Y-106000000D03*
X140000000Y-106000000D03*
X142000000Y-106000000D03*
X144000000Y-106000000D03*
G04 #@! TD*
D19*
G04 #@! TO.C,C3*
X139500000Y-85000000D03*
X139500000Y-86550000D03*
G04 #@! TD*
G04 #@! TO.C,C4*
X143000000Y-94225000D03*
X143000000Y-95775000D03*
G04 #@! TD*
G04 #@! TO.C,C5*
X141500000Y-94225000D03*
X141500000Y-95775000D03*
G04 #@! TD*
D20*
G04 #@! TO.C,R3*
X148450000Y-95500000D03*
X146800000Y-95500000D03*
G04 #@! TD*
G04 #@! TO.C,R4*
X148450000Y-97000000D03*
X146800000Y-97000000D03*
G04 #@! TD*
G04 #@! TO.C,R5*
X148450000Y-98500000D03*
X146800000Y-98500000D03*
G04 #@! TD*
D17*
G04 #@! TO.C,J3*
X152000000Y-88500000D03*
D18*
X152000000Y-90500000D03*
X152000000Y-92500000D03*
X152000000Y-94500000D03*
X152000000Y-96500000D03*
X152000000Y-98500000D03*
G04 #@! TD*
D20*
G04 #@! TO.C,R6*
X148461342Y-100000000D03*
X146811342Y-100000000D03*
G04 #@! TD*
D19*
G04 #@! TO.C,C6*
X137854631Y-90047062D03*
X137854631Y-91597062D03*
G04 #@! TD*
D15*
G04 #@! TO.C,R8*
X133370038Y-93817587D03*
X133370038Y-95467587D03*
G04 #@! TD*
D19*
G04 #@! TO.C,C8*
X138500000Y-94225000D03*
X138500000Y-95775000D03*
G04 #@! TD*
D21*
G04 #@! TO.C,J2*
X128962500Y-92200000D03*
X128962500Y-92850000D03*
X128962500Y-93500000D03*
X128962500Y-94150000D03*
X128962500Y-94800000D03*
D22*
X126262500Y-97000000D03*
D23*
X126262500Y-94500000D03*
D24*
X128962500Y-96000000D03*
X128962500Y-91000000D03*
D25*
X126262500Y-90600000D03*
D22*
X126262500Y-90000000D03*
D25*
X126262500Y-96400000D03*
D23*
X126262500Y-92500000D03*
G04 #@! TD*
D20*
G04 #@! TO.C,R9*
X133364708Y-88021012D03*
X131714708Y-88021012D03*
G04 #@! TD*
D26*
G04 #@! TO.C,D1*
X134000000Y-83350000D03*
X134000000Y-86650000D03*
G04 #@! TD*
D27*
G04 #@! TO.C,Q1*
X135799570Y-88021353D03*
X137699570Y-88021353D03*
X136749570Y-85401353D03*
G04 #@! TD*
D28*
G04 #@! TO.C,J4*
X138850000Y-81575000D03*
D29*
X141390000Y-81575000D03*
G04 #@! TD*
D30*
G04 #@! TO.C,U3*
X135637500Y-91950000D03*
X135637500Y-91000000D03*
X135637500Y-90050000D03*
X133362500Y-90050000D03*
X133362500Y-91950000D03*
G04 #@! TD*
D19*
G04 #@! TO.C,C2*
X131385193Y-92199473D03*
X131385193Y-93749473D03*
G04 #@! TD*
G04 #@! TO.C,C7*
X140000000Y-94225000D03*
X140000000Y-95775000D03*
G04 #@! TD*
M02*
